<svg xmlns="http://www.w3.org/2000/svg" width="33.056" height="34.169" viewBox="0 0 33.056 34.169">
  <defs>
    <style>
      .cls-1 {
        fill: #017d1d;
      }
    </style>
  </defs>
  <g id="shopping-cart" transform="translate(-6.913 0)">
    <g id="Group_2" data-name="Group 2" transform="translate(6.913 -0.001)">
      <g id="Group_1" data-name="Group 1">
        <circle id="Ellipse_1" data-name="Ellipse 1" class="cls-1" cx="4.039" cy="4.039" r="4.039" transform="translate(9.109 26.09)"/>
        <path id="Path_2" data-name="Path 2" class="cls-1" d="M270.536,324.1h0a4.039,4.039,0,1,0,4.039,4.039A4.039,4.039,0,0,0,270.536,324.1Z" transform="translate(-245.6 -298.008)"/>
        <path id="Path_3" data-name="Path 3" class="cls-1" d="M38.732,21.968H17.67l-.412-2.391H34.569a1.236,1.236,0,0,0,1.154-.783L39.845,8.408a1.237,1.237,0,0,0-1.154-1.69H15.115L14.126,1.03A1.237,1.237,0,0,0,12.889,0H8.149a1.236,1.236,0,0,0,0,2.473h3.709L15.4,23.41a1.236,1.236,0,0,0,1.236,1.03H38.732a1.236,1.236,0,0,0,0-2.473Z" transform="translate(-6.913 0.001)"/>
      </g>
    </g>
  </g>
</svg>
